<svg width="32" height="32" viewBox="0 0 32 32" fill="none" xmlns="http://www.w3.org/2000/svg">
<path d="M16 8.00061C11.45 8.00061 7.70001 11.7968 7.70001 16.5165C7.70001 21.1848 11.45 24.9811 16 24.9811C20.55 24.9811 24.3 21.1848 24.3 16.4652C24.3 11.7968 20.55 8.00061 16 8.00061ZM16 21.6978C13.2 21.6978 10.95 19.3893 10.95 16.5165C10.95 13.6437 13.2 11.3351 16 11.3351C18.8 11.3351 21.05 13.6437 21.05 16.5165C21.05 19.338 18.8 21.6978 16 21.6978Z" fill="#B2B2B2"/>
<path d="M24.3 10.104C25.4046 10.104 26.3 9.18529 26.3 8.052C26.3 6.91871 25.4046 6 24.3 6C23.1954 6 22.3 6.91871 22.3 8.052C22.3 9.18529 23.1954 10.104 24.3 10.104Z" fill="#B2B2B2"/>
<rect x="0.5" y="0.5" width="31" height="31" stroke="#B2B2B2"/>
</svg>
