<svg width="32" height="32" viewBox="0 0 32 32" fill="none" xmlns="http://www.w3.org/2000/svg">
<path d="M15.95 16.6451C19.1 16.6451 21.65 14.0801 21.65 10.8995C21.65 7.66761 19.15 5 16 5C12.85 5 10.35 7.56501 10.3 10.7969C10.3 14.0288 12.85 16.6451 15.95 16.6451ZM16 8.02671C17.55 8.02671 18.75 9.30922 18.75 10.8482C18.75 12.4385 17.55 13.6697 16 13.721C14.45 13.721 13.2 12.4898 13.2 10.8995C13.2 9.30922 14.45 8.02671 16 8.02671Z" fill="#B2B2B2"/>
<path d="M21 16.6451C20.7 16.7477 20.45 16.9016 20.2 17.0555C17.7 18.7997 14.25 18.7484 11.75 16.9529C11.65 16.8503 11.5 16.799 11.35 16.6964C10.65 16.3372 10 16.5424 9.6 17.1068C9.15 17.7737 9.2 18.4406 9.8 19.0049C9.95 19.1588 10.1 19.2614 10.3 19.4153C11.65 20.4926 13.2 20.903 14.95 21.1082C14.85 21.2621 14.75 21.3134 14.65 21.416C13.4 22.7498 12.1 24.0324 10.85 25.3662C10.6 25.6227 10.4 25.9305 10.4 26.3409C10.35 26.9052 10.7 27.5208 11.3 27.7773C11.8 28.0338 12.35 27.9312 12.8 27.5208C13.8 26.4948 14.8 25.4688 15.75 24.4428C16 24.1863 16.15 24.135 16.4 24.4428C17.35 25.4688 18.35 26.4435 19.3 27.4695C19.55 27.726 19.85 27.9312 20.2 27.9312C20.8 27.9825 21.35 27.5721 21.65 27.0078C21.9 26.4948 21.8 25.9305 21.35 25.4688C20.05 24.135 18.75 22.8011 17.5 21.4673C17.4 21.3647 17.35 21.3134 17.2 21.1595C18.15 21.0569 19.1 20.8517 20 20.5439C20.95 20.1848 21.75 19.6718 22.45 18.9023C22.9 18.4406 22.9 17.825 22.55 17.2094C22.15 16.7477 21.6 16.4911 21 16.6451Z" fill="#B2B2B2"/>
<rect x="0.5" y="0.5" width="31" height="31" stroke="#B2B2B2"/>
</svg>
