<svg width="32" height="32" viewBox="0 0 32 32" fill="none" xmlns="http://www.w3.org/2000/svg">
<path d="M5.65 11.0773C6.25 13.7962 8.74999 22.5172 16 22.5172H17.4C17.75 22.5172 18.05 22.2094 18.05 21.8503V20.9782C18.05 20.3626 18.75 20.1061 19.15 20.5165L20.4 21.9016C20.75 22.312 21.25 22.5172 21.8 22.5172H25.8C26.1 22.5172 26.2 22.1581 26.05 21.9529L23.1 18.6697C25.15 16.0021 26.05 12.565 26.4 11.0773C26.5 10.6669 26.2 10.2565 25.75 10.2565H22.95C22.65 10.2565 22.4 10.4617 22.35 10.7695C22 12.2059 20.75 16.4638 18.45 16.8742C18.25 16.9255 18.05 16.7716 18.05 16.5664V10.6669C18.05 10.3078 17.75 10 17.4 10H13.45C13.2 10 13 10.3078 13.2 10.5643C13.55 10.9747 13.9 11.6929 13.95 12.8728V16.6177C13.95 16.8229 13.75 16.9768 13.55 16.9255C11.25 16.4638 9.99999 12.2572 9.64999 10.8208C9.59999 10.513 9.29999 10.3078 9.04999 10.3078H6.25C5.85 10.3078 5.55 10.6669 5.65 11.0773Z" fill="#B2B2B2"/>
<rect x="0.5" y="0.5" width="31" height="31" stroke="#B2B2B2"/>
</svg>
